# xmcd
#
# Track frame offsets: 
#        150
#        10580
#        22277
#        34365
#        43105
#        55227
#        65492
#        79855
#        90700
#        101815
#        111567
#        121812
#        133895
#        144302
#        154200
#        163485
#
# Disc length: 2331 seconds
#
# Revision: 5
# Processed by: cddbd v1.5.2PL0 Copyright (c) Steve Scherf et al.
# Submitted via: ExactAudioCopyFreeDBPlugin 1.0
#
DISCID=ea091910
DTITLE=Chet Atkins - The Master And His Music
DYEAR=2001
DGENRE=Jazz
TTITLE0=Mister Sandman
TTITLE1=Black Mountain Rag
TTITLE2=A Taste of Honey
TTITLE3=Country Gentleman
TTITLE4=Do I Ever Cross Your Mind (with Dolly Parton)
TTITLE5=Main Street Breakdown
TTITLE6=Yesterday
TTITLE7=Blue Angel
TTITLE8=Cascade
TTITLE9=Boo Boo Stick Beat
TTITLE10=Silver Bell (with Hank Snow)
TTITLE11=Streets of Laredo, The
TTITLE12=It Don't Mean a Thing (If It Ain't Got That Swing)
TTITLE13=Jerry's Breakdown (with Jerry Reed)
TTITLE14=Yakety Axe
TTITLE15=Over the Rainbow (with Les Paul)
EXTD=LABEL =BMG Entertainment\nID =RCA07863-67019-2\nUPC =078636-70
EXTD=1929\nCOPYRIGHT =2001
EXTT0=
EXTT1=
EXTT2=
EXTT3=
EXTT4=
EXTT5=
EXTT6=
EXTT7=
EXTT8=
EXTT9=
EXTT10=
EXTT11=
EXTT12=
EXTT13=
EXTT14=
EXTT15=
PLAYORDER=
